<?xml version="1.0" encoding="utf-8"?>
<!DOCTYPE svg PUBLIC "-//W3C//DTD SVG 20010904//EN" "http://www.w3.org/TR/2001/REC-SVG-20010904/DTD/svg10.dtd">
<svg version="1.0" xmlns="http://www.w3.org/2000/svg" width="580px" height="580px" viewBox="0 0 580 580" preserveAspectRatio="xMidYMid meet">
 <g fill="#f39524">
  <path d="M80.5 570.5 c-13.5 -2 -23.2 -6.2 -35.5 -15.4 -14.6 -10.8 -25.8 -27 -30.7 -44.3 -1.7 -6 -1.8 -17.6 -1.8 -223.8 0 -203.2 0.1 -217.9 1.7 -223.4 9.3 -31.6 36 -55.1 67.5 -59.6 5.5 -0.8 67.4 -1 213.3 -0.8 l205.5 0.3 6.5 2.3 c16.5 5.9 25.8 11.7 35.9 22.1 10.8 11.2 17.5 23.1 21.5 38.3 l2.5 9.3 -0.2 213.5 c-0.3 231.3 0 218.2 -5.5 230.2 -1.2 2.6 -2.2 5.2 -2.2 5.7 0 0.6 -0.4 1.1 -0.9 1.1 -0.5 0 -1.4 1.5 -2.2 3.3 -4 10.1 -19.5 25.8 -31.4 32 -12.8 6.6 -17.8 8.1 -31 9.7 -3.8 0.5 -96.3 0.9 -205.5 0.8 -157.6 0 -200.4 -0.3 -207.5 -1.3z m345.3 -47.8 c1.7 -1 3.2 -2.4 3.2 -3.2 0 -0.8 0.4 -1.5 0.8 -1.5 0.5 0 1.7 -1.7 2.7 -3.7 1.7 -3.6 1.8 -9.3 1.6 -124.3 -0.2 -106.1 0 -121.1 1.3 -125.5 2.3 -7.3 2.2 -7.5 -3 -7.5 l-4.7 0 0.5 -7.7 c0.3 -5.4 1.3 -9.7 3.1 -14 6.8 -15.9 7.9 -18.6 10.2 -24.8 1.7 -4.7 2 -6.7 1.2 -7 -2.1 -0.7 -17 -5.2 -25.2 -7.6 -4.4 -1.2 -8.4 -2.6 -9 -3 -0.5 -0.3 -3.2 -1 -5.9 -1.4 -2.7 -0.3 -5.6 -1 -6.5 -1.5 -0.9 -0.5 -2.4 -1.1 -3.3 -1.4 -1.3 -0.4 -1.8 -1.6 -1.8 -4.1 0 -1.9 0.5 -3.5 1 -3.5 0.6 0 2.9 -1.2 5.3 -2.7 3.9 -2.6 5.2 -2.8 16.5 -3.3 l12.3 -0.5 3 -3.5 c1.6 -1.9 3.2 -4.5 3.5 -5.7 0.6 -2.1 1.2 -2.3 7.9 -2.3 8.1 0 12.5 -1.2 12.5 -3.4 0 -0.8 0.6 -1.6 1.3 -1.9 0.9 -0.3 0.8 -1.2 -0.5 -3.7 -1 -1.7 -1.8 -4.7 -1.8 -6.6 0 -3.4 0.2 -3.6 8.3 -7.3 4.5 -2.1 9 -4.7 9.9 -5.7 0.9 -1.1 2.7 -2.9 3.8 -4.2 2.7 -3 2.1 -4.5 -2.9 -7.7 -4.1 -2.5 -12.5 -3.5 -14.7 -1.7 -1.2 1 -6.9 2.8 -11.4 3.7 -3.9 0.7 -4.4 0.9 -15.1 5.9 -4.1 2 -8.7 3.6 -10.2 3.6 -2.5 0 -2.7 -0.3 -2.7 -3.8 0 -2.5 1 -5.4 3 -8.5 1.7 -2.6 3 -5.1 3 -5.5 0 -0.4 2.5 -3 5.6 -5.7 3 -2.8 6 -5.6 6.7 -6.4 0.7 -0.7 2.9 -3.1 5 -5.4 5.3 -5.7 5.1 -9.1 -0.5 -11.7 -2.6 -1.2 -6.5 -2 -10 -2 l-5.8 0 0 -3.8 c0 -2.1 0.7 -6.4 1.5 -9.5 2 -7.7 1.9 -11 -0.5 -15.7 -1.9 -3.8 -7.9 -8 -11.3 -8 -3.4 0 -10.4 8 -15.2 17.4 -4.7 9.1 -5.1 9.6 -8.2 9.6 -1.8 0 -5.3 -1 -7.7 -2.2 -6.2 -3 -10.4 -1.8 -13 3.7 -1.8 3.9 -1.8 4.2 0.4 15.5 1.2 6.3 2.5 15.4 2.8 20.2 l0.5 8.8 -3.7 0 c-2.2 0 -4.2 -0.7 -5 -1.7 -3.4 -4.2 -8.6 -11.4 -8.6 -11.9 0 -0.3 -1.5 -2.2 -3.4 -4.2 -1.9 -2.1 -4.4 -4.9 -5.7 -6.3 -4.1 -4.4 -9.7 -8.1 -13.6 -9 -3.2 -0.7 -4.4 -0.4 -7.5 1.7 -6 3.9 -4.7 9.5 4.5 19.1 3.5 3.6 4.7 5.6 4.7 8 0 2.7 -0.6 3.5 -5.5 6.2 -3 1.7 -5.5 3.8 -5.5 4.6 0 2.1 5 9.5 6.4 9.5 0.7 0 2.1 0.8 3.2 1.9 2.8 2.6 5.9 4.1 8.3 4.1 1.2 0 2.1 0.5 2.1 1 0 0.6 0.6 1 1.3 1 0.8 0 3 1.5 5 3.2 3.1 2.8 4.1 4.6 5.7 11.3 1.2 4.4 2.3 10.6 2.7 13.9 l0.6 5.8 -11.1 -0.7 c-12.6 -0.8 -11.8 -1.3 -14.2 8.3 -1.1 4.2 -1.2 4.3 -4.6 4 -3.3 -0.3 -3.7 -0.6 -5.3 -5.8 -3.8 -11.5 -6.9 -22.8 -8.4 -30 -5.6 -26.9 -8.8 -44.9 -9.7 -54.5 -1.3 -14.1 -1.8 -16.8 -4.3 -23.5 -3.3 -9.1 -13 -21 -20.9 -25.8 -1.6 -0.9 -2.8 -2 -2.8 -2.4 0 -0.4 -0.7 -0.8 -1.5 -0.8 -0.9 0 -2.6 -0.6 -3.8 -1.4 -1.2 -0.8 -5.1 -2.5 -8.7 -3.7 -3.6 -1.2 -6.9 -2.5 -7.5 -2.9 -2.1 -1.7 -13.8 -3.2 -20.3 -2.8 -9.3 0.7 -24.7 8.3 -32.6 16.1 -3.1 3 -5.6 5.9 -5.6 6.5 0 0.5 -0.6 1.2 -1.4 1.5 -1.8 0.7 -8.1 13.7 -10.2 21.2 -2.1 7.3 -1.5 18.1 1.5 27.5 1.2 3.6 2.7 8.5 3.5 11 0.8 2.5 2.7 8.6 4.1 13.5 1.5 5 3.8 12.4 5.1 16.5 1.4 4.1 3.3 10.7 4.3 14.5 1 3.9 2.4 8.3 3 9.8 0.6 1.6 1.1 4.4 1.1 6.3 0 3.2 -0.2 3.4 -3.3 3.4 -3.1 0 -3.5 -0.4 -5.9 -5.7 -1.4 -3.2 -3.4 -7.8 -4.4 -10.3 -5.6 -14.2 -5.7 -14.3 -13.9 -15.4 -2.7 -0.3 -14.1 -2.1 -25.3 -3.9 l-20.2 -3.3 -2.2 3.5 c-1.2 2 -3.5 6.1 -5.1 9.1 -1.6 3 -3.8 6.6 -4.8 7.9 -1.1 1.3 -1.9 2.8 -1.9 3.2 0 0.5 -1.3 3 -2.9 5.5 l-2.8 4.6 6.1 10.5 c3.3 5.7 6.9 11.6 7.8 13.1 1 1.5 3.1 5.2 4.8 8.2 1.7 3 4 7.1 5.2 9 1.1 1.9 3.4 6 5 9 1.7 3 4.3 7.4 5.9 9.8 1.6 2.4 2.9 4.6 2.9 5 0 0.4 0.9 1.8 2 3.2 1.1 1.4 2 4.1 2 6.3 0 3.6 -0.1 3.7 -3.8 3.7 -2.1 0 -4.2 -0.4 -4.7 -0.9 -0.6 -0.5 -2.5 -1.2 -4.4 -1.6 -3.1 -0.7 -3.3 -0.5 -2.5 1.1 0.5 1.1 1.1 57.2 1.4 129.9 0.5 122.7 0.6 128.1 2.4 131.1 2.1 3.5 4.8 5.4 9.1 6.5 1.7 0.4 62.4 0.6 135 0.6 124.4 -0.2 132.2 -0.3 135.3 -2z"/>
  <path d="M282.7 463.4 c-1.1 -0.3 -3.4 -1.6 -5.2 -2.7 -1.8 -1.2 -4.8 -3.1 -6.6 -4.2 -1.8 -1.1 -4 -2.4 -4.9 -3 -0.8 -0.5 -3.8 -2.3 -6.5 -3.9 -4.8 -2.7 -16 -9.8 -21.7 -13.7 -1.5 -1.1 -3.2 -1.9 -3.8 -1.9 -0.6 0 -1.3 -0.7 -1.6 -1.5 -0.4 -0.8 -1.2 -1.5 -2 -1.5 -1.7 0 -10.4 -5.9 -10.4 -7.1 0 -0.5 -0.6 -0.9 -1.3 -0.9 -2.3 0 -12.7 -8.2 -21.2 -16.6 -8.1 -8 -15 -17.2 -17.1 -22.9 -6.9 -17.8 -9 -29.4 -7.8 -43 0.6 -7.3 3.9 -19.9 5.9 -22.5 0.6 -0.8 1.7 -2.8 2.5 -4.5 2.2 -4.6 15.1 -16.5 17.9 -16.5 0.5 0 1.1 -0.7 1.5 -1.5 0.3 -0.8 1.3 -1.5 2.1 -1.5 0.9 0 5.1 -1.2 9.3 -2.7 6.9 -2.3 9.2 -2.6 22.2 -2.7 9.7 -0.1 15.8 0.3 18.5 1.2 7.8 2.6 14.5 5.6 14.5 6.4 0 0.4 0.7 0.8 1.6 0.8 3 0 11 9.5 18.8 22.3 l1.8 2.9 2.4 -4.4 c1.4 -2.3 3.2 -5.8 4 -7.7 1.6 -3.4 6.8 -9.1 8.4 -9.1 0.5 0 1.8 -1.2 3 -2.7 4.5 -5.7 27.5 -11.1 42.9 -9.9 10.5 0.7 14.1 1.6 25.3 6.3 10.1 4.3 17.4 10.8 23.1 20.9 7.4 13.2 9.8 34.3 5.7 50.6 -2.1 8.3 -6.9 19 -10.1 22.4 -1 1.1 -1.9 2.3 -1.9 2.7 0 3 -15 19.8 -21.5 24.1 -6.7 4.4 -8.9 5.9 -12.3 8.8 -1.8 1.5 -3.9 2.8 -4.6 2.8 -0.7 0 -2.1 0.9 -3.1 2 -1 1.1 -2.3 2 -3 2 -0.7 0 -2 1 -3.1 2.1 -1 1.2 -2.8 2.5 -3.9 3.1 -3.5 1.6 -6.7 3.6 -7.4 4.5 -0.3 0.5 -2.2 1.7 -4.1 2.6 -4.3 2.1 -5.9 3.1 -13 8 -3.1 2 -5.9 3.7 -6.3 3.7 -0.3 0 -3.3 1.9 -6.6 4.1 -5.2 3.6 -6.9 4.2 -12.3 4.5 -3.5 0.1 -7.1 0 -8.1 -0.2z"/>
  <path d="M298.5 159.3 c-1.1 -0.3 -3.3 -1.1 -5 -1.8 -3.9 -1.7 -21.3 -7 -29.5 -9 -7.2 -1.8 -21.3 -2 -27.5 -0.5 -2.2 0.5 -5.5 1 -7.2 1 -3.3 0 -3.3 -0.1 -3.3 -4.6 0 -4.3 0.4 -5 5.1 -9.3 6 -5.4 11.5 -7 25 -7.1 23.5 -0.1 52.9 15.4 52.9 27.9 0 3.8 -3.7 5 -10.5 3.4z"/>
  <path d="M275.5 103.6 c-17.2 -8 -42.1 -13.3 -53.5 -11.5 -3.6 0.6 -8.9 1.3 -11.7 1.6 l-5.3 0.5 0 -4 c0 -2.9 0.7 -4.9 2.5 -7 1.4 -1.7 2.5 -3.5 2.5 -4.1 0 -0.6 0.6 -1.1 1.3 -1.1 0.7 0 3.3 -1 5.8 -2.2 4 -2.1 5.8 -2.3 18.9 -2.3 12.1 0.1 15.5 0.4 20.5 2.2 3.3 1.2 7.2 2.4 8.6 2.7 1.4 0.3 3.8 1.7 5.5 3.1 1.6 1.4 3.2 2.5 3.6 2.5 0.3 0 2.9 1.8 5.7 4 5.8 4.6 8.1 8.4 8.1 13.5 l0 3.5 -4.7 0 c-2.7 0 -6.1 -0.7 -7.8 -1.4z"/>
 </g>
 <g fill="#fefdf8">
  <path d="M186.3 571.3 c53.8 -0.2 141.6 -0.2 195 0 53.5 0.1 9.5 0.2 -97.8 0.2 -107.2 0 -151 -0.1 -97.2 -0.2z"/>
  <path d="M481.3 571.3 c1.5 -0.2 3.9 -0.2 5.5 0 1.5 0.2 0.2 0.4 -2.8 0.4 -3 0 -4.3 -0.2 -2.7 -0.4z"/>
  <path d="M71.5 569 c-2.5 -1.1 0.1 -1.1 3.5 0 2 0.6 2.1 0.8 0.5 0.8 -1.1 0 -2.9 -0.3 -4 -0.8z"/>
  <path d="M527 559.2 c0 -1.3 2.3 -3.2 3.8 -3.2 0.7 0 1 0.4 0.7 1 -0.9 1.4 -4.5 3.2 -4.5 2.2z"/>
  <path d="M21.4 528.5 c-0.9 -1.4 -1.5 -2.7 -1.3 -3 0.3 -0.2 1.2 1 2.1 2.6 2.1 3.6 1.5 3.9 -0.8 0.4z"/>
  <path d="M152.5 527.1 c-4.3 -1.1 -7 -3 -9.1 -6.5 -1.8 -3 -1.9 -8.5 -2.5 -131.1 -0.3 -87.7 -0.9 -129.4 -1.6 -132.4 -0.6 -2.5 -0.9 -5.1 -0.6 -5.8 0.6 -1.5 3.9 -1.8 4.7 -0.4 0.3 0.5 2.3 1.2 4.3 1.6 2.1 0.4 4.4 1.2 5.1 1.7 2.3 1.9 2.5 0 0.3 -3 -1.2 -1.7 -2.1 -3.3 -2.1 -3.6 0 -0.3 -1.3 -2.4 -2.9 -4.8 -1.6 -2.4 -4.2 -6.8 -5.9 -9.8 -1.6 -3 -3.9 -7.1 -5 -9 -1.2 -1.9 -3.5 -6 -5.2 -9 -1.7 -3 -3.8 -6.7 -4.8 -8.2 -4.6 -7.3 -15.2 -25.8 -15.2 -26.7 0 -0.6 1.6 -3.5 3.5 -6.5 1.9 -3 3.5 -5.9 3.5 -6.4 0 -0.5 0.8 -2 1.9 -3.3 1 -1.3 3.2 -4.9 4.8 -7.9 1.6 -3 4.1 -7.3 5.5 -9.5 l2.6 -4.1 19.8 3.2 c11 1.8 23.1 3.8 26.9 4.4 12.7 2 12.5 1.9 17.3 14.5 3.2 8.2 7.5 17.6 7.9 17.1 0.2 -0.2 -0.2 -1.6 -0.8 -3.2 -0.6 -1.6 -2 -6 -3 -9.9 -1 -3.8 -2.9 -10.4 -4.3 -14.5 -1.3 -4.1 -3.6 -11.5 -5.1 -16.5 -2.7 -9.1 -3.8 -12.8 -7.6 -24.5 -3 -9.2 -3.7 -25.7 -1.5 -33.6 2.1 -7.4 8.4 -20.4 10.2 -21.1 0.8 -0.3 1.4 -1 1.4 -1.5 0 -0.6 2.5 -3.5 5.6 -6.5 7.3 -7.3 22.4 -14.9 32 -16.2 8 -1.2 23.6 0.5 26.9 2.9 0.6 0.4 3.9 1.7 7.5 2.9 3.6 1.2 7.5 2.9 8.7 3.7 1.2 0.8 2.9 1.4 3.8 1.4 0.8 0 1.5 0.4 1.5 0.8 0 0.4 1.2 1.5 2.8 2.4 7.9 4.8 17.6 16.7 20.9 25.8 2.5 6.7 3 9.4 4.3 23.5 0.9 9.5 3.7 25.5 9.6 54.5 0.9 4.1 2.4 10.2 3.4 13.5 5.3 17.5 6.4 21.1 7.1 21.9 0.4 0.5 1.2 -1.1 1.8 -3.5 2.5 -10 2.5 -10 17.3 -8.6 l7.7 0.7 -0.5 -3.3 c-0.4 -1.7 -1.3 -5.5 -2 -8.3 -0.8 -2.8 -1.7 -6.2 -1.9 -7.5 -0.5 -2.6 -7 -8.9 -9.2 -8.9 -0.7 0 -1.3 -0.5 -1.3 -1.1 0 -0.5 -0.4 -0.7 -1 -0.4 -1.1 0.7 -6.5 -1.9 -9.3 -4.6 -1.2 -1 -2.6 -1.9 -3.3 -1.9 -2.4 0 -6.4 -7.8 -6.4 -12.5 0 -4.4 0.1 -4.5 5.6 -7.6 l5.5 -3.2 -3.8 -4.1 c-2.1 -2.2 -4.2 -4.3 -4.6 -4.7 -1.6 -1.2 -4 -6.5 -4.8 -10.7 -1.1 -5.5 0.1 -8.4 4.6 -11.2 6.7 -4.2 17.1 -1.4 25.2 6.8 4.2 4.2 9.7 10.4 10.8 12.3 3.6 5.8 8.2 11.9 9.4 12.4 1.8 0.7 0.9 -8.2 -2.5 -25 -2.4 -12.3 -2.4 -12.3 -0.6 -17.1 1.2 -2.9 2.9 -5.4 4.3 -6.1 3.7 -2 11.5 -1.6 16 0.8 2.3 1.1 4.2 1.9 4.4 1.7 0.1 -0.2 2.4 -4.5 5.1 -9.7 5.3 -10.2 11.2 -16.4 16.5 -17.5 5.1 -1 13.3 3.3 15.8 8.3 2.2 4.3 2.9 14.8 1.2 19.3 -0.4 1.3 -1.1 4 -1.5 6.1 l-0.7 3.7 5.5 0 c7 0 13.5 2.5 14.6 5.6 1.5 4 -0.3 10.5 -4.1 14.5 -1.9 2 -3.9 4.3 -4.6 5 -0.7 0.8 -3.7 3.6 -6.7 6.4 -3.1 2.7 -5.6 5.3 -5.6 5.7 0 0.4 -1.3 2.9 -3 5.5 -1.6 2.6 -3 5 -3 5.4 0 0.4 2.6 -0.6 5.8 -2.1 8.9 -4.4 12.4 -5.8 16.2 -6.5 4.6 -0.9 10.2 -2.7 11.7 -3.8 0.7 -0.5 4.6 -0.9 8.8 -0.9 6.6 0.1 8 0.4 11.7 2.9 3.8 2.5 4.3 3.4 4.6 7 0.2 3.2 -0.2 4.8 -1.8 6.5 -1.1 1.3 -2.9 3.1 -3.8 4.2 -0.9 1 -5.4 3.6 -9.9 5.7 -4.6 2.1 -8.3 4.1 -8.3 4.4 0 0.3 0.6 1.6 1.4 2.8 0.8 1.2 1.8 3.9 2.1 5.9 0.6 3 0.4 3.9 -0.9 4.4 -0.9 0.3 -1.6 1.3 -1.6 2 0 2.2 -4.4 3.4 -12.5 3.4 -6.7 0 -7.3 0.2 -7.9 2.3 -0.3 1.2 -1.8 3.7 -3.4 5.5 -2.3 2.8 -3.7 3.4 -8.7 4.1 -3.3 0.5 -8.6 0.6 -11.7 0.3 -4.6 -0.4 -6.3 -0.1 -9 1.6 -1.8 1.2 -4.7 2.8 -6.3 3.6 -2.6 1.4 -2.7 1.6 -0.9 2.1 1 0.4 2.6 1 3.5 1.5 0.9 0.5 3.8 1.2 6.5 1.5 2.7 0.4 5.4 1.1 5.9 1.4 0.6 0.4 4.6 1.8 9 3 20.4 6 25.1 7.5 26.3 8.6 1.8 1.6 -1.1 10.4 -12.4 36.7 -1.4 3.2 -2.8 8.1 -3.1 10.9 l-0.6 5.2 3.9 -0.7 c2.1 -0.4 4.9 -1 6.2 -1.3 2.6 -0.6 3 1.5 0.8 5.5 -0.8 1.5 -2.2 5.6 -3.1 9.1 -1.5 5.8 -1.7 16.9 -1.4 126.5 0.2 115.2 0.2 120.3 -1.6 123.9 -1 2 -2.2 3.7 -2.7 3.7 -0.4 0 -0.8 0.7 -0.8 1.5 0 0.8 -1.5 2.2 -3.2 3.2 -3.1 1.7 -11 1.8 -138.3 2 -74.2 0 -136.3 -0.2 -138 -0.6z m147.8 -71.2 c3.2 -2.1 6.1 -3.9 6.4 -3.9 0.4 0 3.2 -1.7 6.3 -3.7 7.1 -4.9 8.7 -5.9 13 -8 1.9 -0.9 3.8 -2.1 4.1 -2.6 0.7 -0.9 3.9 -2.9 7.4 -4.5 1.1 -0.6 2.9 -1.9 3.9 -3.1 1.1 -1.1 2.4 -2.1 3.1 -2.1 0.7 0 2 -0.9 3 -2 1 -1.1 2.4 -2 3.1 -2 0.7 0 2.8 -1.3 4.6 -2.8 3.4 -2.9 5.6 -4.4 12.3 -8.8 6.5 -4.3 21.5 -21.1 21.5 -24.1 0 -0.4 0.9 -1.6 1.9 -2.7 6 -6.4 12.1 -25.1 12.1 -37.1 0 -9 -3.4 -22.3 -7.7 -29.9 -5.7 -10 -13 -16.6 -23.1 -20.9 -19.2 -8 -31.7 -8.5 -51.7 -1.9 -5.8 2 -9.1 3.7 -10.5 5.5 -1.2 1.5 -2.5 2.7 -3 2.7 -0.5 0 -2.2 1.2 -3.7 2.8 -2.5 2.4 -4.4 5.6 -10.1 16.7 -3.5 7 -3.6 7 -7.2 1.2 -7.6 -12.2 -10 -15.4 -14.3 -19.9 -2.5 -2.7 -5.2 -4.8 -6.1 -4.8 -0.9 0 -1.6 -0.4 -1.6 -0.8 0 -0.8 -6.7 -3.8 -14.5 -6.4 -2.5 -0.8 -8.3 -1.3 -15.5 -1.2 -9.8 0.1 -12.6 0.5 -19 2.8 -4.1 1.5 -8.3 2.7 -9.3 2.7 -1 0 -2.1 0.7 -2.4 1.5 -0.3 0.8 -0.9 1.4 -1.4 1.4 -2.7 0 -16.6 12.6 -16.1 14.7 0.2 0.7 -0.2 1.3 -0.8 1.3 -0.6 0 -1.3 0.8 -1.7 1.8 -0.3 0.9 -1.1 2.4 -1.8 3.2 -0.6 0.8 -2.2 4.8 -3.5 8.9 -4.1 13.5 -2.8 31.6 3.5 45.8 1.4 3.1 2.5 5.9 2.5 6.4 0 2.1 9.3 14 16.6 21.3 8.4 8.4 18.8 16.6 21.1 16.6 0.7 0 1.3 0.4 1.3 0.9 0 1.2 8.7 7.1 10.4 7.1 0.8 0 1.6 0.7 2 1.5 0.3 0.8 1 1.5 1.6 1.5 0.6 0 2.3 0.8 3.8 1.9 5.7 3.9 16.9 11 21.7 13.7 2.7 1.6 5.7 3.4 6.5 3.9 0.9 0.6 3.1 1.9 4.9 3 1.8 1.1 4.8 3 6.6 4.2 6.6 4.3 11.5 3.9 19.8 -1.8z m3.7 -303.1 c-2.2 -3.7 -10.6 -10 -18.5 -14.1 -7.7 -3.9 -22.4 -7.7 -29.4 -7.7 -10.5 0.1 -16.4 2 -22 7.1 -5.5 5 -6.8 8.3 -2.8 7.4 10.5 -2.6 24.9 -2.6 35.7 0 8 2 25.4 7.3 29.5 9 7.4 3.2 10.1 2.6 7.5 -1.7z m-19 -51.3 c0 -3.4 -7.3 -10.8 -14.7 -15.1 -1.8 -1 -3.3 -2.2 -3.3 -2.7 0 -0.4 -0.4 -0.5 -1 -0.2 -0.5 0.3 -1 0.1 -1 -0.5 0 -0.6 -0.4 -0.8 -1 -0.5 -0.5 0.3 -1 0.1 -1 -0.6 0 -0.7 -0.3 -1 -0.6 -0.7 -0.3 0.4 -3.8 -0.5 -7.7 -2 -6.1 -2.2 -8.9 -2.6 -18.7 -2.6 -10 -0.1 -12.1 0.2 -15.9 2.2 -2.5 1.2 -5.1 2.2 -5.8 2.2 -0.7 0 -1.3 0.5 -1.3 1.1 0 0.6 -1.1 2.4 -2.5 4.1 -3.1 3.7 -3.2 5.2 -0.2 4.4 7.7 -2.2 19.5 -2.8 28.7 -1.3 15.2 2.4 28.7 6.3 39.5 11.3 3.1 1.4 6.5 1.8 6.5 0.9z"/>
  <path d="M562 514.3 c1 -3.2 2 -6.7 2.3 -7.8 0.3 -1.1 0.3 0 0 2.4 -0.5 4.1 -2.8 11.1 -3.7 11.1 -0.2 0 0.4 -2.6 1.4 -5.7z"/>
  <path d="M565.2 501 c0 -1.9 0.2 -2.7 0.5 -1.7 0.2 0.9 0.2 2.5 0 3.5 -0.3 0.9 -0.5 0.1 -0.5 -1.8z"/>
  <path d="M566.5 284.5 c0 -114.4 0.1 -161.1 0.2 -103.7 0.2 57.4 0.2 151 0 208 -0.1 57 -0.2 10.1 -0.2 -104.3z"/>
  <path d="M12.2 73.5 c0 -1.6 0.3 -3.9 0.8 -5 l0.9 -2 -0.1 2 c0 1.1 -0.4 3.4 -0.8 5 l-0.8 3 0 -3z"/>
  <path d="M565.4 74.6 c-0.3 -0.8 -0.4 -2.3 -0.2 -3.3 0.3 -1.1 0.6 -0.6 0.9 1.5 0.6 3.4 0.2 4.2 -0.7 1.8z"/>
  <path d="M15.6 59 c0.3 -1.4 1 -2.9 1.5 -3.4 1.4 -1.6 1 0.6 -0.7 3.4 l-1.5 2.5 0.7 -2.5z"/>
  <path d="M32 30.7 c0.8 -0.7 2.1 -1.9 2.9 -2.7 1.1 -1.3 1.2 -1.2 0.3 0.6 -0.7 1.2 -1.9 2.4 -2.9 2.8 -1.6 0.5 -1.6 0.4 -0.3 -0.7z"/>
  <path d="M45.9 18.6 c1.3 -1.6 5.1 -4.1 5.1 -3.3 0 0.2 -1.5 1.4 -3.2 2.7 -2.1 1.5 -2.8 1.7 -1.9 0.6z"/>
  <path d="M500.5 5 c-1.3 -0.5 -1.4 -0.9 -0.5 -0.9 0.8 0 2.4 0.4 3.5 0.9 1.3 0.5 1.4 0.9 0.5 0.9 -0.8 0 -2.4 -0.4 -3.5 -0.9z"/>
  <path d="M187.2 3.3 c56.6 -0.2 149 -0.2 205.5 0 56.6 0.1 10.3 0.2 -102.7 0.2 -113 0 -159.3 -0.1 -102.8 -0.2z"/>
 </g>
</svg>